<?xml version="1.0" standalone="no"?>
<!DOCTYPE svg PUBLIC "-//W3C//DTD SVG 20010904//EN"
 "http://www.w3.org/TR/2001/REC-SVG-20010904/DTD/svg10.dtd">
<svg version="1.0" xmlns="http://www.w3.org/2000/svg"
 width="4267.000000pt" height="4267.000000pt" viewBox="0 0 4267.000000 4267.000000"
 preserveAspectRatio="xMidYMid meet">
<metadata>
Created by potrace 1.16, written by Peter Selinger 2001-2019
</metadata>
<g transform="translate(0.000000,4267.000000) scale(0.100000,-0.100000)"
fill="#000000" stroke="none">
<path d="M21730 26254 c-1375 -25 -2839 -240 -4195 -615 -738 -204 -1498 -472
-2130 -749 -408 -179 -584 -241 -889 -315 -540 -132 -1103 -169 -1781 -119
-543 40 -965 117 -1527 280 -104 29 -192 54 -197 54 -15 0 -210 -397 -275
-560 -135 -343 -225 -703 -272 -1085 -22 -181 -30 -575 -15 -760 50 -636 248
-1216 574 -1677 104 -148 113 -147 32 5 -167 313 -294 723 -350 1127 -22 156
-31 586 -16 765 46 558 210 1128 457 1591 l54 102 163 -54 c656 -213 1326
-325 2042 -341 510 -11 945 33 1392 142 255 62 446 127 829 281 535 215 837
325 1309 474 1594 504 3159 785 4845 872 323 16 1366 16 1660 0 1749 -98 3287
-393 4915 -942 254 -86 761 -272 923 -339 39 -16 72 -26 72 -21 0 12 -314 183
-615 335 -1777 897 -3824 1427 -5905 1529 -315 15 -829 25 -1100 20z"/>
<path d="M30580 24364 c-30 -2 -147 -8 -260 -14 -745 -40 -1546 -154 -2235
-319 -1329 -318 -2547 -506 -3785 -586 -761 -48 -1657 -50 -2350 -5 -1230 82
-2430 294 -3283 581 -82 28 -153 49 -159 47 -15 -5 346 -184 518 -256 1020
-432 2325 -735 3644 -846 1334 -113 2739 -56 4143 169 469 76 1082 197 1417
280 245 62 738 153 1105 204 1625 229 3310 187 4746 -119 1220 -261 2289 -686
3288 -1310 113 -71 214 -135 225 -143 16 -12 20 -39 32 -233 37 -604 59 -892
69 -882 6 6 87 1190 82 1194 -1 1 -88 71 -194 157 -1317 1074 -2978 1751
-4888 1991 -539 68 -856 87 -1510 91 -302 1 -575 1 -605 -1z"/>
<path d="M6710 23894 c-791 -12 -1607 -47 -2190 -94 -246 -20 -315 -28 -308
-35 6 -7 439 -43 698 -59 820 -51 1198 -61 2390 -61 1085 0 1339 5 2030 40
426 22 1037 68 1048 80 16 16 -709 69 -1288 95 -599 26 -1775 43 -2380 34z"/>
<path d="M5125 22310 c-1145 -12 -2141 -43 -2955 -95 -259 -16 -353 -25 -347
-31 7 -7 535 -41 892 -58 313 -15 597 -26 1240 -47 515 -17 2779 -23 3425 -10
842 17 1376 35 1950 66 317 18 702 44 708 49 13 14 -839 63 -1483 86 -666 24
-1153 33 -2285 44 -206 2 -721 0 -1145 -4z"/>
<path d="M22416 21613 c-3 -38 -8 -108 -11 -158 -9 -133 -54 -653 -61 -702
l-6 -43 98 0 99 0 43 123 c100 280 188 408 317 458 56 21 77 23 313 27 l252 4
0 -1119 c-1 -1080 -6 -1346 -30 -1425 -31 -105 -125 -151 -357 -173 l-73 -7 0
-94 0 -94 805 0 805 0 0 94 0 93 -112 13 c-216 24 -282 54 -326 148 l-27 57
-3 1253 -2 1252 223 0 c124 0 249 -5 278 -10 82 -15 138 -49 191 -114 60 -74
147 -251 190 -383 l33 -102 90 6 c49 3 92 7 94 9 2 2 -3 131 -13 286 -9 156
-19 370 -23 476 l-6 192 -69 0 c-66 0 -72 -2 -116 -39 -101 -83 17 -76 -1205
-79 -1050 -2 -1090 -2 -1131 17 -24 10 -58 37 -76 60 l-33 41 -73 0 -72 0 -6
-67z"/>
<path d="M13097 21605 c-414 -52 -760 -189 -1033 -409 -270 -217 -456 -528
-534 -891 -17 -76 -23 -148 -27 -305 -5 -179 -2 -221 16 -329 115 -672 595
-1142 1313 -1285 373 -75 729 -62 1244 45 l151 31 55 142 c50 126 162 456 201
593 l15 52 -89 35 c-49 20 -93 36 -98 36 -5 0 -33 -44 -61 -97 -227 -428 -475
-619 -826 -640 -548 -32 -985 372 -1118 1037 -98 488 -25 1009 187 1334 224
341 578 487 1024 420 315 -46 521 -207 638 -497 19 -47 42 -113 51 -146 11
-39 23 -61 32 -61 8 0 54 7 104 16 88 16 89 17 84 43 -13 62 -86 710 -86 759
0 15 -28 23 -202 55 -112 21 -250 44 -308 53 -148 22 -591 27 -733 9z"/>
<path d="M16381 21599 c-52 -11 -95 -20 -97 -22 -1 -1 -234 -580 -518 -1287
-284 -707 -539 -1330 -566 -1385 -91 -186 -181 -257 -365 -290 l-95 -17 0 -94
0 -94 600 0 600 0 0 95 c0 84 -2 95 -17 95 -45 1 -233 31 -279 44 -130 40
-161 122 -110 292 19 64 143 424 171 497 7 16 36 17 472 15 l465 -3 45 -120
c24 -66 75 -212 114 -324 72 -213 83 -276 54 -318 -18 -26 -100 -58 -189 -74
l-66 -11 0 -94 0 -94 705 0 705 0 0 94 0 95 -47 6 c-153 21 -246 64 -304 141
-78 102 -142 257 -569 1374 -97 256 -264 698 -371 983 -187 501 -194 517 -218
516 -15 -1 -68 -10 -120 -20z m-205 -1897 c-203 -1 -371 0 -374 3 -9 8 157
450 308 818 l73 179 181 -499 181 -498 -369 -3z"/>
<path d="M27020 21606 c-383 -55 -688 -203 -940 -456 -227 -226 -369 -493
-442 -830 -20 -93 -22 -133 -22 -345 0 -212 2 -252 22 -345 72 -332 209 -587
437 -815 329 -330 755 -489 1265 -472 241 8 426 47 625 132 485 207 806 609
922 1154 25 117 27 143 27 376 1 223 -2 261 -22 355 -67 308 -197 559 -396
767 -225 235 -507 389 -851 463 -129 28 -479 37 -625 16z m415 -236 c256 -81
445 -276 570 -587 164 -408 199 -1028 85 -1485 -94 -378 -288 -625 -555 -708
-201 -62 -450 -19 -632 109 -258 183 -430 521 -499 982 -22 147 -30 487 -15
634 61 602 308 981 696 1071 87 20 261 12 350 -16z"/>
<path d="M32050 21614 c-153 -18 -218 -28 -305 -46 -716 -147 -1197 -589
-1324 -1214 -60 -294 -40 -656 50 -929 38 -114 112 -267 180 -370 72 -108 280
-315 389 -387 183 -121 361 -200 576 -254 228 -57 329 -69 609 -69 241 1 351
10 540 45 194 36 544 102 561 105 20 4 20 7 10 62 -6 36 -11 235 -11 528 l0
470 25 50 c31 61 80 89 198 112 l82 16 0 94 0 93 -730 0 -730 0 0 -93 0 -94
113 -16 c230 -33 308 -77 344 -194 16 -51 18 -99 18 -393 0 -288 -2 -343 -17
-390 -43 -138 -165 -187 -437 -178 -269 10 -470 95 -646 272 -269 272 -408
731 -392 1299 5 194 18 289 58 440 103 383 344 665 660 772 151 52 328 67 519
45 119 -14 192 -34 285 -79 204 -100 362 -304 455 -586 18 -55 33 -101 34
-102 2 -3 187 34 191 39 3 3 -6 97 -19 210 -14 112 -32 287 -41 389 -24 270
-17 247 -73 254 -26 4 -121 20 -212 36 -302 54 -372 61 -655 64 -148 2 -286 1
-305 -1z"/>
<path d="M35540 21606 c-594 -85 -1054 -429 -1278 -956 -144 -338 -173 -767
-76 -1129 163 -605 647 -1040 1289 -1157 126 -23 489 -26 605 -6 112 20 257
58 335 87 569 215 939 698 1016 1328 17 146 7 475 -20 599 -44 202 -130 404
-244 573 -83 123 -275 314 -397 394 -193 129 -392 210 -630 257 -115 22 -469
28 -600 10z m415 -236 c311 -98 532 -375 644 -812 106 -409 104 -949 -4 -1324
-96 -330 -285 -560 -528 -640 -71 -24 -99 -28 -202 -28 -179 0 -314 41 -449
138 -341 244 -534 787 -513 1451 15 472 129 806 352 1031 76 77 105 98 185
138 52 25 124 53 160 61 92 21 264 14 355 -15z"/>
<path d="M18200 21466 c0 -110 -15 -96 127 -115 151 -19 225 -68 260 -173 16
-49 18 -131 21 -1128 2 -732 0 -1105 -8 -1169 -12 -108 -41 -173 -93 -209 -36
-24 -157 -57 -249 -67 l-58 -6 0 -95 0 -94 740 0 740 0 0 95 c0 52 -3 95 -7
95 -5 0 -49 7 -98 15 -166 27 -224 58 -262 141 -34 74 -42 207 -43 648 l0 359
105 -6 c114 -7 164 -23 209 -65 39 -37 52 -58 220 -366 315 -574 424 -717 619
-810 155 -74 313 -106 630 -127 146 -10 180 -10 187 1 4 7 13 40 20 74 6 34
13 69 16 79 3 10 0 17 -8 17 -8 0 -47 16 -88 36 -154 73 -351 316 -662 813
-143 227 -308 511 -308 527 1 5 39 27 86 48 124 58 199 110 289 200 91 92 144
176 182 291 25 74 27 93 28 250 0 186 -13 252 -75 375 -96 189 -291 338 -525
399 -194 50 -254 53 -1152 58 l-843 5 0 -96z m1474 -142 c187 -48 326 -194
388 -409 20 -71 23 -101 23 -265 -1 -174 -2 -190 -28 -265 -36 -109 -90 -196
-164 -265 -113 -106 -216 -139 -461 -147 l-163 -6 3 624 c3 557 5 628 20 661
18 40 52 67 101 78 58 14 216 11 281 -6z"/>
<path d="M7035 20724 c-674 -24 -994 -40 -1345 -69 -231 -20 -462 -44 -468
-49 -15 -16 537 -64 1043 -91 539 -28 936 -38 1635 -38 699 0 1084 9 1625 38
497 27 1058 76 1043 91 -6 6 -379 43 -593 58 -205 15 -428 29 -800 47 -194 10
-1935 20 -2140 13z"/>
<path d="M18766 17405 c-155 -63 -232 -192 -224 -374 2 -73 8 -96 36 -153 56
-115 159 -184 289 -195 245 -20 415 152 401 406 -7 112 -38 180 -113 250 -73
66 -141 91 -248 91 -64 0 -95 -6 -141 -25z m221 -46 c55 -27 107 -87 135 -158
33 -82 32 -254 -1 -328 -91 -206 -345 -178 -432 46 -29 74 -32 223 -6 296 48
139 183 203 304 144z"/>
<path d="M22431 17414 c-212 -77 -309 -330 -206 -540 111 -226 455 -260 614
-60 53 67 75 138 75 251 1 88 -2 107 -26 157 -35 76 -98 142 -166 175 -47 23
-72 28 -152 30 -68 2 -107 -1 -139 -13z m204 -58 c60 -28 85 -54 119 -122 70
-139 52 -349 -37 -438 -117 -117 -294 -66 -373 106 -26 57 -29 73 -29 173 0
94 3 118 23 161 58 128 178 177 297 120z"/>
<path d="M26589 17407 c-171 -59 -254 -176 -253 -357 1 -109 27 -180 92 -248
74 -78 182 -122 302 -122 71 0 198 20 209 34 15 19 61 157 55 167 -12 20 -40
7 -59 -27 -78 -146 -256 -164 -381 -40 -42 43 -56 66 -73 121 -73 236 44 445
248 445 107 -1 174 -42 201 -126 12 -34 17 -38 42 -29 11 4 11 21 3 92 -13
105 -10 104 -190 110 -117 3 -137 1 -196 -20z"/>
<path d="M27509 17403 c-66 -176 -234 -593 -246 -614 -16 -27 -51 -49 -78 -49
-8 0 -15 -9 -15 -20 0 -19 7 -20 130 -20 120 0 130 1 130 19 0 14 -10 20 -40
25 -23 3 -43 13 -46 21 -4 8 7 52 22 98 l29 82 116 3 116 3 33 -92 c31 -88 32
-93 14 -106 -10 -7 -26 -13 -36 -13 -11 0 -18 -7 -18 -20 0 -19 7 -20 140 -20
133 0 140 1 140 20 0 14 -7 20 -21 20 -33 0 -58 18 -77 58 -11 20 -68 171
-128 335 -99 272 -110 297 -131 297 -16 0 -27 -8 -34 -27z m56 -276 c21 -59
36 -110 33 -113 -3 -2 -44 -4 -91 -2 l-85 3 46 123 c27 73 48 118 52 110 4 -7
24 -61 45 -121z"/>
<path d="M29898 17417 c-102 -39 -176 -106 -220 -203 -20 -42 -23 -66 -23
-159 0 -104 2 -114 33 -177 38 -77 92 -130 171 -167 49 -23 69 -26 156 -26
110 0 161 17 235 75 112 89 159 274 110 433 -26 83 -96 164 -178 204 -47 23
-71 28 -152 30 -62 2 -108 -1 -132 -10z m199 -58 c89 -43 148 -148 159 -282
11 -126 -23 -236 -90 -295 -119 -104 -300 -37 -368 137 -25 66 -31 220 -10
288 42 139 188 211 309 152z"/>
<path d="M30725 17412 c-107 -50 -145 -184 -81 -282 25 -38 60 -64 174 -130
86 -49 112 -84 112 -153 0 -40 -5 -54 -28 -77 -79 -79 -231 -19 -257 101 -7
30 -41 42 -50 17 -5 -13 19 -165 27 -173 2 -2 30 -11 63 -20 152 -39 277 2
330 108 60 122 11 221 -152 306 -133 69 -176 135 -139 212 21 44 48 61 102 61
66 0 104 -32 134 -115 7 -19 16 -27 28 -25 15 3 17 14 14 83 -2 44 -8 84 -12
89 -5 5 -58 11 -117 13 -90 3 -115 1 -148 -15z"/>
<path d="M17790 17400 c0 -14 9 -21 35 -26 66 -12 65 -6 65 -313 0 -210 -3
-281 -13 -295 -7 -9 -32 -20 -55 -23 -32 -4 -42 -10 -42 -24 0 -18 13 -19 263
-19 l263 0 24 91 c19 77 21 92 9 100 -23 14 -28 11 -53 -40 -14 -26 -39 -60
-56 -75 -29 -24 -39 -26 -115 -26 -63 0 -88 4 -99 16 -14 13 -16 54 -16 294 0
308 -1 302 65 314 26 5 35 12 35 26 0 19 -8 20 -155 20 -147 0 -155 -1 -155
-20z"/>
<path d="M19850 17401 c0 -14 9 -22 28 -27 64 -13 72 -21 72 -69 0 -87 -30
-471 -40 -506 -10 -35 -41 -59 -75 -59 -8 0 -15 -9 -15 -20 0 -19 7 -20 135
-20 124 0 135 2 135 18 0 13 -12 21 -42 28 -64 14 -68 27 -58 239 5 99 9 205
10 235 l1 55 53 -125 c29 -69 81 -198 117 -287 54 -138 67 -162 85 -163 18 0
28 16 57 83 20 45 79 177 132 292 l95 210 -2 -258 c-3 -243 -4 -260 -22 -273
-11 -8 -30 -14 -43 -14 -16 0 -23 -6 -23 -20 0 -19 7 -20 150 -20 143 0 150 1
150 20 0 15 -7 20 -29 20 -16 0 -39 9 -52 19 l-24 19 -3 277 c-3 252 -2 278
14 296 9 10 25 19 35 19 31 0 49 12 49 31 0 18 -7 20 -100 17 l-101 -3 -121
-260 c-66 -143 -124 -263 -127 -268 -4 -4 -59 113 -123 260 l-117 268 -100 3
c-96 3 -101 2 -101 -17z"/>
<path d="M20950 17400 c0 -14 10 -22 39 -30 21 -5 42 -17 45 -26 3 -9 6 -141
6 -294 0 -277 0 -279 -22 -294 -12 -9 -37 -16 -55 -16 -26 0 -33 -4 -33 -20 0
-20 7 -20 274 -20 l274 0 22 81 c12 44 19 87 16 95 -11 28 -34 13 -67 -43 -19
-32 -45 -63 -59 -70 -14 -7 -63 -13 -116 -13 -124 0 -124 0 -124 163 l0 127
84 0 c93 0 110 -8 121 -60 5 -21 13 -30 26 -30 18 0 19 8 19 120 0 112 -1 120
-19 120 -13 0 -21 -9 -26 -30 -11 -52 -28 -60 -121 -60 l-84 0 0 130 0 130
100 0 c95 0 102 -2 124 -25 13 -14 27 -39 32 -57 7 -23 17 -34 32 -36 21 -3
22 0 22 56 0 33 -3 74 -6 91 l-6 31 -249 0 c-241 0 -249 -1 -249 -20z"/>
<path d="M21700 17400 c0 -13 9 -22 28 -26 15 -3 33 -7 40 -10 29 -9 34 -60
30 -359 -3 -280 -5 -303 -25 -346 -11 -26 -37 -59 -57 -75 -38 -30 -42 -40
-27 -63 21 -32 154 77 188 154 15 35 18 82 23 351 5 326 8 344 50 344 32 0 50
12 50 31 0 18 -9 19 -150 19 -143 0 -150 -1 -150 -20z"/>
<path d="M23120 17401 c0 -15 8 -22 35 -27 66 -12 65 -6 65 -319 0 -282 0
-284 -22 -299 -12 -9 -35 -16 -50 -16 -21 0 -28 -5 -28 -20 0 -19 7 -20 155
-20 148 0 155 1 155 20 0 15 -7 20 -28 20 -15 0 -38 7 -50 16 -21 14 -22 22
-22 136 l0 121 40 -6 c23 -3 47 -10 55 -17 8 -6 41 -55 74 -108 94 -154 152
-198 249 -190 48 4 55 30 12 48 -37 15 -88 75 -170 200 l-62 95 24 14 c47 30
97 91 104 126 10 55 -1 133 -23 163 -11 15 -40 38 -64 52 -42 24 -52 25 -246
28 -199 4 -203 4 -203 -17z m349 -49 c89 -45 109 -168 40 -246 -29 -34 -90
-56 -154 -56 l-25 0 0 148 c0 102 4 152 12 160 18 18 88 15 127 -6z"/>
<path d="M24270 17401 c0 -14 10 -21 37 -28 62 -14 64 -24 61 -330 -2 -186 -7
-276 -14 -283 -6 -7 -30 -14 -53 -17 -32 -4 -41 -10 -41 -24 0 -19 11 -19 272
-17 l272 3 23 85 c17 65 20 86 10 92 -23 15 -34 8 -52 -32 -10 -23 -34 -54
-52 -70 -32 -29 -38 -30 -126 -30 -133 0 -131 -2 -135 159 l-4 131 91 0 c82 0
91 -2 105 -22 9 -12 16 -33 16 -45 0 -18 6 -23 25 -23 l25 0 0 120 0 120 -25
0 c-19 0 -25 -5 -25 -23 0 -12 -7 -33 -16 -45 -14 -20 -23 -22 -105 -22 l-90
0 3 128 3 127 99 3 c113 3 123 -2 153 -74 14 -35 23 -44 42 -44 22 0 23 3 17
38 -3 20 -6 61 -6 90 l0 52 -255 0 c-244 0 -255 -1 -255 -19z"/>
<path d="M25000 17401 c0 -20 18 -31 50 -31 10 0 30 -14 45 -31 l26 -32 -3
-264 c-3 -265 -3 -265 -27 -284 -13 -10 -34 -19 -47 -19 -17 0 -24 -6 -24 -20
0 -19 7 -20 135 -20 128 0 135 1 135 20 0 13 -7 20 -20 20 -28 0 -68 20 -76
39 -8 17 -18 360 -12 424 l3 39 225 -276 c195 -239 229 -276 253 -276 l27 0 0
309 c0 173 4 321 10 335 6 18 21 28 50 36 29 8 40 16 40 30 0 19 -8 20 -140
20 -131 0 -140 -1 -140 -19 0 -14 9 -21 33 -26 61 -12 67 -16 77 -53 7 -23 10
-115 8 -236 l-3 -199 -225 266 -224 267 -88 0 c-80 0 -88 -2 -88 -19z"/>
<path d="M28040 17401 c0 -15 9 -22 35 -27 66 -12 65 -6 65 -319 0 -282 0
-284 -22 -299 -12 -9 -35 -16 -50 -16 -21 0 -28 -5 -28 -20 0 -19 7 -20 155
-20 148 0 155 1 155 20 0 15 -7 20 -28 20 -15 0 -38 7 -50 16 -21 14 -22 22
-22 136 l0 121 40 -6 c23 -3 47 -10 55 -17 8 -6 42 -56 75 -111 74 -120 116
-165 171 -179 88 -24 163 10 89 40 -38 16 -73 56 -148 168 -90 134 -88 124
-37 160 63 44 88 99 83 179 -5 77 -26 109 -94 143 -46 24 -59 25 -246 28 -194
4 -198 3 -198 -17z m375 -65 c40 -31 59 -83 52 -143 -9 -81 -62 -128 -160
-139 l-57 -7 0 150 c0 106 4 153 13 162 20 21 112 7 152 -23z"/>
<path d="M28850 17401 c0 -15 10 -23 39 -31 21 -5 42 -17 45 -26 3 -9 6 -141
6 -294 0 -277 0 -279 -22 -294 -12 -9 -33 -16 -45 -16 -16 0 -23 -6 -23 -20 0
-19 7 -20 150 -20 143 0 150 1 150 20 0 15 -7 20 -28 20 -15 0 -38 7 -50 16
-21 14 -22 22 -22 136 l0 121 40 -6 c53 -7 60 -14 122 -115 98 -159 152 -202
257 -202 33 0 41 3 41 19 0 11 -12 24 -31 31 -36 15 -88 77 -171 205 l-59 90
23 15 c82 55 108 100 108 188 0 73 -25 116 -90 152 -43 24 -54 25 -242 28
-195 4 -198 4 -198 -17z m339 -49 c44 -22 70 -57 77 -104 19 -116 -58 -198
-185 -198 l-31 0 0 148 c0 102 4 152 12 160 18 18 88 15 127 -6z"/>
</g>
</svg>
